<svg width="85" height="40" viewBox="0 0 85 40" fill="none" xmlns="http://www.w3.org/2000/svg">
<path fill-rule="evenodd" clip-rule="evenodd" d="M13.0527 8.02159C19.2345 4.77144 26.8414 3.34103 31.46 3L31.5194 3.81028C26.9685 4.1463 19.4798 5.55951 13.4279 8.74137C7.37536 11.9236 2.87584 16.7999 3.97633 24.0618C4.64693 28.487 8.85822 31.6408 15.2264 33.7534C21.5631 35.8556 29.8748 36.8692 38.4294 37.1226C46.9786 37.3758 55.7437 36.8692 62.9739 35.945C66.589 35.4829 69.8152 34.9171 72.4357 34.2914C75.0667 33.6631 77.0532 32.9821 78.2126 32.3029C80.5455 30.9364 81.9942 28.8118 82.1722 26.4284C82.35 24.0478 81.2659 21.3201 78.3512 18.7405C72.5023 13.5639 59.3852 9.09274 35.1373 9.49856L35.1239 8.68621C59.4208 8.27957 72.8012 12.7455 78.8862 18.131C81.9385 20.8323 83.1805 23.7919 82.979 26.4892C82.7778 29.1837 81.1419 31.5276 78.6203 33.0047C77.3525 33.7474 75.2682 34.4501 72.6229 35.0818C69.9669 35.716 66.711 36.2863 63.076 36.751C55.8059 37.6802 46.9987 38.1892 38.4056 37.9347C29.8177 37.6803 21.4168 36.6627 14.9726 34.5248C8.55981 32.3974 3.92176 29.1022 3.17646 24.1841C1.9992 16.4155 6.87154 11.2714 13.0527 8.02159Z" fill="#FDFF7A" stroke="#F3F488" stroke-width="4"/>
</svg>
