<svg width="145" height="11" viewBox="0 0 145 11" fill="none" xmlns="http://www.w3.org/2000/svg">
<path fill-rule="evenodd" clip-rule="evenodd" d="M90.0175 4.75897C60.8879 4.05479 25.819 3.33643 2.41062 2.89L2.41299 2.20905C25.8223 2.6555 60.893 3.37389 90.0248 4.07813C104.59 4.43024 117.673 4.77884 127.071 5.08817C131.769 5.24281 135.549 5.38773 138.134 5.51845C139.426 5.58376 140.424 5.6458 141.091 5.70416C141.422 5.73311 141.684 5.76217 141.862 5.79221C141.945 5.80613 142.039 5.82496 142.118 5.85393C142.147 5.86468 142.237 5.89859 142.31 5.97372C142.352 6.01801 142.401 6.09044 142.406 6.18633C142.411 6.28393 142.367 6.36057 142.323 6.4098C142.257 6.48384 142.172 6.51826 142.142 6.53006C142.1 6.54657 142.056 6.55832 142.02 6.56695C141.947 6.58445 141.857 6.5992 141.76 6.61233C141.563 6.63893 141.291 6.66456 140.952 6.68969C140.273 6.74012 139.298 6.79066 138.06 6.84129C135.582 6.94261 132.036 7.04496 127.672 7.14696C118.942 7.35097 106.927 7.55376 93.6098 7.74388C66.975 8.12412 35.1268 8.45373 13.9238 8.64098L13.8991 7.95989C35.1011 7.77264 66.9474 7.44305 93.5798 7.06285C106.896 6.87274 118.908 6.67 127.633 6.46609C131.787 6.36903 135.193 6.27175 137.641 6.17552C135.084 6.05124 131.48 5.91441 127.055 5.76877C117.661 5.45959 104.583 5.11107 90.0175 4.75897Z" fill="#FDFF7A" stroke="#F3F488" stroke-width="4"/>
</svg>
